<mxfile host="Electron" modified="2024-07-11T06:37:12.371Z" agent="Mozilla/5.0 (Windows NT 10.0; Win64; x64) AppleWebKit/537.36 (KHTML, like Gecko) draw.io/23.1.5 Chrome/120.0.6099.109 Electron/28.1.0 Safari/537.36" etag="n4zLg15-IaH9JLXEih-k" version="23.1.5" type="device">
  <diagram id="prtHgNgQTEPvFCAcTncT" name="Page-1">
    <mxGraphModel dx="3225" dy="1573" grid="1" gridSize="10" guides="1" tooltips="1" connect="1" arrows="1" fold="1" page="1" pageScale="1" pageWidth="827" pageHeight="1169" math="0" shadow="0">
      <root>
        <mxCell id="0" />
        <mxCell id="1" parent="0" />
        <mxCell id="3-zwbpewqvUswulld5sG-1" value="" style="image;aspect=fixed;perimeter=ellipsePerimeter;html=1;align=center;shadow=0;dashed=0;fontColor=#4277BB;labelBackgroundColor=default;fontSize=12;spacingTop=3;image=img/lib/ibm/data/data_sources.svg;" vertex="1" parent="1">
          <mxGeometry x="115" y="622" width="90" height="90" as="geometry" />
        </mxCell>
        <mxCell id="3-zwbpewqvUswulld5sG-3" value="&lt;font style=&quot;font-size: 18px;&quot;&gt;video- transient-bucket&lt;/font&gt;" style="swimlane;whiteSpace=wrap;html=1;startSize=40;fillColor=#d5e8d4;strokeColor=#82b366;strokeWidth=3;" vertex="1" parent="1">
          <mxGeometry x="329" y="537" width="250" height="180" as="geometry" />
        </mxCell>
        <mxCell id="3-zwbpewqvUswulld5sG-4" value="&lt;font style=&quot;font-size: 18px;&quot;&gt;1. Load data from data source &lt;br&gt;by specific file format &lt;br&gt;and file date&lt;br&gt;2. Landing Mechanism&lt;br&gt;&lt;/font&gt;" style="text;html=1;align=center;verticalAlign=middle;resizable=0;points=[];autosize=1;strokeColor=none;fillColor=none;" vertex="1" parent="3-zwbpewqvUswulld5sG-3">
          <mxGeometry x="-10" y="63" width="260" height="100" as="geometry" />
        </mxCell>
        <mxCell id="3-zwbpewqvUswulld5sG-12" value="" style="editableCssRules=.*;html=1;shape=image;verticalLabelPosition=bottom;labelBackgroundColor=#ffffff;verticalAlign=top;aspect=fixed;imageAspect=0;image=data:image/svg+xml,PHN2ZyB4bWxucz0iaHR0cDovL3d3dy53My5vcmcvMjAwMC9zdmciIHhtbG5zOnY9Imh0dHBzOi8vdmVjdGEuaW8vbmFubyIgd2lkdGg9IjQyNCIgaGVpZ2h0PSI0MjQiIHZpZXdCb3g9IjAgMCA0MjQgNDI0Ij4mI3hhOwk8c3R5bGUgdHlwZT0idGV4dC9jc3MiPiYjeGE7CS5zdDB7ZmlsbDojNDI4NWY0O30mI3hhOwk8L3N0eWxlPiYjeGE7CTxwYXRoIGNsYXNzPSJzdDAiIGQ9Ik00MjQgMHY0MjRIMFYwek0yMTIgOTcuODQ2Yy0zNy44ODQgMC03MC4xNjQgMjMuOTktODIuNDc4IDU3LjYwOGgwbC0zLjQwMy4wMDFjLTQyLjYzNCAwLTc3LjE5NiAzNC41NjItNzcuMTk2IDc3LjE5NnMzNC41NjIgNzcuMTk2IDc3LjE5NiA3Ny4xOTZoMCAxNzEuNzYzYzQyLjYzNCAwIDc3LjE5Ni0zNC41NjIgNzcuMTk2LTc3LjE5NnMtMzQuNTYyLTc3LjE5Ni03Ny4xOTYtNzcuMTk2aDBsLTMuNDAzLS4wMDFDMjgyLjE2NCAxMjEuODM3IDI0OS44ODQgOTcuODQ2IDIxMiA5Ny44NDZ6IiBmaWxsLXJ1bGU9ImV2ZW5vZGQiLz4mI3hhOzwvc3ZnPg==;" vertex="1" parent="1">
          <mxGeometry x="119" y="540" width="82" height="82" as="geometry" />
        </mxCell>
        <mxCell id="3-zwbpewqvUswulld5sG-13" value="" style="shape=flexArrow;endArrow=classic;html=1;rounded=0;" edge="1" parent="1">
          <mxGeometry width="50" height="50" relative="1" as="geometry">
            <mxPoint x="210" y="632" as="sourcePoint" />
            <mxPoint x="320" y="632" as="targetPoint" />
          </mxGeometry>
        </mxCell>
        <mxCell id="3-zwbpewqvUswulld5sG-14" value="&lt;span style=&quot;font-size: 18px;&quot;&gt;video-raw-bucket&lt;/span&gt;" style="swimlane;whiteSpace=wrap;html=1;startSize=40;fillColor=#60a917;fontColor=#ffffff;strokeColor=#2D7600;strokeWidth=3;" vertex="1" parent="1">
          <mxGeometry x="338" y="800" width="242" height="180" as="geometry" />
        </mxCell>
        <mxCell id="3-zwbpewqvUswulld5sG-17" value="&lt;span style=&quot;font-size: 18px;&quot;&gt;1. Check the column name &lt;br&gt;and datatype&lt;br&gt;2. Store orginal data record&lt;br&gt;for history retention&lt;br&gt;&lt;/span&gt;" style="text;html=1;align=center;verticalAlign=middle;resizable=0;points=[];autosize=1;strokeColor=none;fillColor=none;" vertex="1" parent="3-zwbpewqvUswulld5sG-14">
          <mxGeometry y="56" width="240" height="100" as="geometry" />
        </mxCell>
        <mxCell id="3-zwbpewqvUswulld5sG-18" value="" style="shape=flexArrow;endArrow=classic;html=1;rounded=0;entryX=0.428;entryY=0.009;entryDx=0;entryDy=0;entryPerimeter=0;" edge="1" parent="1">
          <mxGeometry width="50" height="50" relative="1" as="geometry">
            <mxPoint x="448" y="720" as="sourcePoint" />
            <mxPoint x="449.1479999999999" y="801.6199999999999" as="targetPoint" />
          </mxGeometry>
        </mxCell>
        <mxCell id="3-zwbpewqvUswulld5sG-19" value="" style="shape=flexArrow;endArrow=classic;html=1;rounded=0;" edge="1" parent="1">
          <mxGeometry width="50" height="50" relative="1" as="geometry">
            <mxPoint x="590" y="900" as="sourcePoint" />
            <mxPoint x="700" y="900" as="targetPoint" />
          </mxGeometry>
        </mxCell>
        <mxCell id="3-zwbpewqvUswulld5sG-20" value="&lt;font style=&quot;font-size: 18px;&quot;&gt;video-curated-bucket&lt;/font&gt;" style="swimlane;whiteSpace=wrap;html=1;startSize=40;fillColor=#fff2cc;strokeColor=#d6b656;strokeWidth=3;" vertex="1" parent="1">
          <mxGeometry x="720" y="800" width="250" height="180" as="geometry" />
        </mxCell>
        <mxCell id="3-zwbpewqvUswulld5sG-28" value="&lt;span style=&quot;font-size: 18px;&quot;&gt;1. Data Clean&lt;br&gt;2. Data Organization&lt;br&gt;3. Data Warehouse&lt;br&gt;4. Data Deliver&lt;br&gt;&lt;/span&gt;" style="text;html=1;align=center;verticalAlign=middle;resizable=0;points=[];autosize=1;strokeColor=none;fillColor=none;" vertex="1" parent="3-zwbpewqvUswulld5sG-20">
          <mxGeometry x="30" y="60" width="190" height="100" as="geometry" />
        </mxCell>
        <mxCell id="3-zwbpewqvUswulld5sG-35" value="" style="shape=flexArrow;endArrow=classic;html=1;rounded=0;entryX=0.5;entryY=1;entryDx=0;entryDy=0;" edge="1" parent="3-zwbpewqvUswulld5sG-20">
          <mxGeometry width="50" height="50" relative="1" as="geometry">
            <mxPoint x="115" y="-6" as="sourcePoint" />
            <mxPoint x="115" y="-76" as="targetPoint" />
          </mxGeometry>
        </mxCell>
        <mxCell id="3-zwbpewqvUswulld5sG-29" value="&lt;span style=&quot;font-size: 18px;&quot;&gt;video-analytics-sandbox&lt;/span&gt;" style="swimlane;whiteSpace=wrap;html=1;startSize=40;strokeWidth=3;fillColor=#f8cecc;strokeColor=#b85450;" vertex="1" parent="1">
          <mxGeometry x="710" y="540" width="250" height="180" as="geometry" />
        </mxCell>
        <mxCell id="3-zwbpewqvUswulld5sG-34" value="&lt;span style=&quot;font-size: 18px;&quot;&gt;1. Data Science&lt;br&gt;2. Data Minning&lt;br&gt;3. Data Exploratory&lt;br&gt;&lt;br&gt;&lt;/span&gt;" style="text;html=1;align=center;verticalAlign=middle;resizable=0;points=[];autosize=1;strokeColor=none;fillColor=none;" vertex="1" parent="3-zwbpewqvUswulld5sG-29">
          <mxGeometry x="35" y="60" width="180" height="100" as="geometry" />
        </mxCell>
        <mxCell id="3-zwbpewqvUswulld5sG-36" value="" style="shape=flexArrow;endArrow=classic;html=1;rounded=0;" edge="1" parent="1">
          <mxGeometry width="50" height="50" relative="1" as="geometry">
            <mxPoint x="590" y="790" as="sourcePoint" />
            <mxPoint x="700" y="720" as="targetPoint" />
          </mxGeometry>
        </mxCell>
        <mxCell id="3-zwbpewqvUswulld5sG-37" value="" style="sketch=0;outlineConnect=0;fontColor=#232F3E;gradientColor=none;fillColor=#7AA116;strokeColor=none;dashed=0;verticalLabelPosition=bottom;verticalAlign=top;align=center;html=1;fontSize=12;fontStyle=0;aspect=fixed;pointerEvents=1;shape=mxgraph.aws4.bucket;" vertex="1" parent="1">
          <mxGeometry x="220" y="240" width="912.5" height="949" as="geometry" />
        </mxCell>
        <mxCell id="3-zwbpewqvUswulld5sG-44" value="&lt;font style=&quot;font-size: 29px;&quot;&gt;Data Lake&lt;/font&gt;" style="text;html=1;align=center;verticalAlign=middle;whiteSpace=wrap;rounded=0;fillColor=#dae8fc;strokeColor=#6c8ebf;fontSize=19;" vertex="1" parent="1">
          <mxGeometry x="480" y="340" width="280" height="100" as="geometry" />
        </mxCell>
      </root>
    </mxGraphModel>
  </diagram>
</mxfile>
